<svg xmlns="http://www.w3.org/2000/svg" width="920" height="520" viewBox="0 0 920 520">
<rect width="100%" height="100%" fill="white"/>
<text x="460.0" y="32" text-anchor="middle" font-family="Arial" font-size="22" font-weight="700">Mask R-CNN v1 Improvements</text>
<line x1="80" y1="410.0" x2="880" y2="410.0" stroke="#e5e7eb"/>
<text x="68" y="414.0" text-anchor="end" font-family="Arial" font-size="12" fill="#555">0.00</text>
<line x1="80" y1="342.0" x2="880" y2="342.0" stroke="#e5e7eb"/>
<text x="68" y="346.0" text-anchor="end" font-family="Arial" font-size="12" fill="#555">0.04</text>
<line x1="80" y1="274.0" x2="880" y2="274.0" stroke="#e5e7eb"/>
<text x="68" y="278.0" text-anchor="end" font-family="Arial" font-size="12" fill="#555">0.09</text>
<line x1="80" y1="206.0" x2="880" y2="206.0" stroke="#e5e7eb"/>
<text x="68" y="210.0" text-anchor="end" font-family="Arial" font-size="12" fill="#555">0.13</text>
<line x1="80" y1="138.0" x2="880" y2="138.0" stroke="#e5e7eb"/>
<text x="68" y="142.0" text-anchor="end" font-family="Arial" font-size="12" fill="#555">0.18</text>
<line x1="80" y1="70.0" x2="880" y2="70.0" stroke="#e5e7eb"/>
<text x="68" y="74.0" text-anchor="end" font-family="Arial" font-size="12" fill="#555">0.22</text>
<line x1="80" y1="410" x2="880" y2="410" stroke="#333"/>
<line x1="80" y1="70" x2="80" y2="410" stroke="#333"/>
<polyline points="80.0,253.9 346.7,195.2 613.3,138.0 880.0,121.0" fill="none" stroke="#2f80ed" stroke-width="3"/>
<circle cx="80.0" cy="253.9" r="5" fill="#2f80ed"/>
<text x="80.0" y="243.9" text-anchor="middle" font-family="Arial" font-size="11" fill="#222">0.101</text>
<circle cx="346.7" cy="195.2" r="5" fill="#2f80ed"/>
<text x="346.7" y="185.2" text-anchor="middle" font-family="Arial" font-size="11" fill="#222">0.139</text>
<circle cx="613.3" cy="138.0" r="5" fill="#2f80ed"/>
<text x="613.3" y="128.0" text-anchor="middle" font-family="Arial" font-size="11" fill="#222">0.176</text>
<circle cx="880.0" cy="121.0" r="5" fill="#2f80ed"/>
<text x="880.0" y="111.0" text-anchor="middle" font-family="Arial" font-size="11" fill="#222">0.187</text>
<text x="80.0" y="438.0" text-anchor="middle" font-family="Arial" font-size="12" fill="#333">Heads</text>
<text x="80.0" y="453.0" text-anchor="middle" font-family="Arial" font-size="12" fill="#333">merged</text>
<text x="346.7" y="438.0" text-anchor="middle" font-family="Arial" font-size="12" fill="#333">Full</text>
<text x="346.7" y="453.0" text-anchor="middle" font-family="Arial" font-size="12" fill="#333">cycle</text>
<text x="613.3" y="438.0" text-anchor="middle" font-family="Arial" font-size="12" fill="#333">Small</text>
<text x="613.3" y="453.0" text-anchor="middle" font-family="Arial" font-size="12" fill="#333">anchors</text>
<text x="880.0" y="438.0" text-anchor="middle" font-family="Arial" font-size="12" fill="#333">Final</text>
<text x="880.0" y="453.0" text-anchor="middle" font-family="Arial" font-size="12" fill="#333">copy-paste</text>
<line x1="80" y1="486" x2="96" y2="486" stroke="#2f80ed" stroke-width="3"/>
<text x="102" y="490" font-family="Arial" font-size="13" fill="#333">bbox mAP@0.5</text>
</svg>